{"accessors":[{"bufferView":0,"byteOffset":0,"componentType":5126,"count":36,"max":[5,2.62750005722046,5],"min":[-5,-2.62750005722046,-5],"normalized":false,"type":"VEC3"},{"bufferView":1,"byteOffset":0,"componentType":5126,"count":36,"max":[0,0,0.0000152592547237873,1],"min":[-1,-1,-1,1],"normalized":false,"type":"VEC4"},{"bufferView":2,"byteOffset":0,"componentType":5126,"count":36,"max":[1,1,1],"min":[-1,-1,-1],"normalized":false,"type":"VEC3"},{"bufferView":3,"byteOffset":0,"componentType":5126,"count":36,"max":[1,1],"min":[0,0],"normalized":false,"type":"VEC2"},{"bufferView":4,"byteOffset":0,"componentType":5123,"count":36,"max":[35],"min":[0],"normalized":false,"type":"SCALAR"},{"bufferView":5,"byteOffset":0,"componentType":5126,"count":369,"max":[-1.33835005760193,0.237899005413055,-0.16144001483917],"min":[-2.33835005760193,-0.84190404415131,-2.16143989562988],"normalized":false,"type":"VEC3"},{"bufferView":6,"byteOffset":0,"componentType":5126,"count":369,"max":[0.852799534797668,0.000549643416889012,0.5333491563797,-1],"min":[-1,-1,-1,-1],"normalized":false,"type":"VEC4"},{"bufferView":7,"byteOffset":0,"componentType":5126,"count":369,"max":[1,1,1],"min":[-1,-1,-1],"normalized":false,"type":"VEC3"},{"bufferView":8,"byteOffset":0,"componentType":5126,"count":369,"max":[1,1],"min":[0,0],"normalized":false,"type":"VEC2"},{"bufferView":9,"byteOffset":0,"componentType":5123,"count":369,"max":[368],"min":[0],"normalized":false,"type":"SCALAR"},{"bufferView":10,"byteOffset":0,"componentType":5126,"count":900,"max":[1.12999999523163,0.48262020945549,1.95500004291534],"min":[-1.12999999523163,-0.87305796146393,-1.95500004291534],"normalized":false,"type":"VEC3"},{"bufferView":11,"byteOffset":0,"componentType":5126,"count":900,"max":[0.996442556381226,0.284986197948456,1,1],"min":[-1,-1,-1,-1],"normalized":false,"type":"VEC4"},{"bufferView":12,"byteOffset":0,"componentType":5126,"count":900,"max":[1,1,1],"min":[-1,-1,-1],"normalized":false,"type":"VEC3"},{"bufferView":13,"byteOffset":0,"componentType":5126,"count":900,"max":[1,1],"min":[0,0],"normalized":false,"type":"VEC2"},{"bufferView":14,"byteOffset":0,"componentType":5123,"count":900,"max":[899],"min":[0],"normalized":false,"type":"SCALAR"},{"bufferView":15,"byteOffset":0,"componentType":5126,"count":1602,"max":[0.695633590221405,2.58745002746582,0.690552592277527],"min":[-0.70436632633209,-0.11408313363791,-0.70944726467133],"normalized":false,"type":"VEC3"},{"bufferView":16,"byteOffset":0,"componentType":5126,"count":1602,"max":[0.999337375164032,0.494663298130035,0.999930202960968,1],"min":[-1,-0.62001526355743,-1,-1],"normalized":false,"type":"VEC4"},{"bufferView":17,"byteOffset":0,"componentType":5126,"count":1602,"max":[0.999930620193481,1,1],"min":[-0.99658709764481,-1,-0.99658572673798],"normalized":false,"type":"VEC3"},{"bufferView":18,"byteOffset":0,"componentType":5126,"count":1602,"max":[1,1],"min":[0,0],"normalized":false,"type":"VEC2"},{"bufferView":19,"byteOffset":0,"componentType":5123,"count":1602,"max":[1601],"min":[0],"normalized":false,"type":"SCALAR"},{"bufferView":20,"byteOffset":0,"componentType":5126,"count":1224,"max":[4.96029996871948,-1.72865009307861,1.01750004291534],"min":[3.96029996871948,-4.95364999771118,-1.01750004291534],"normalized":false,"type":"VEC3"},{"bufferView":21,"byteOffset":0,"componentType":5126,"count":1224,"max":[1,1,0.0110611878335476,1],"min":[-1,-1,-1,-1],"normalized":false,"type":"VEC4"},{"bufferView":22,"byteOffset":0,"componentType":5126,"count":1224,"max":[1,1,1],"min":[-1,-1,-1],"normalized":false,"type":"VEC3"},{"bufferView":23,"byteOffset":0,"componentType":5126,"count":1224,"max":[1,1],"min":[0,0],"normalized":false,"type":"VEC2"},{"bufferView":24,"byteOffset":0,"componentType":5123,"count":1224,"max":[1223],"min":[0],"normalized":false,"type":"SCALAR"},{"bufferView":25,"byteOffset":0,"componentType":5126,"count":696,"max":[0.758499979972839,1.03184986114502,0.136169910430908],"min":[-0.75849997997284,-1.27814984321594,-0.06883001327515],"normalized":false,"type":"VEC3"},{"bufferView":26,"byteOffset":0,"componentType":5126,"count":696,"max":[0.405734777450562,0.000152622829773463,0.00412155967205763,1],"min":[-1,-1,-1,-1],"normalized":false,"type":"VEC4"},{"bufferView":27,"byteOffset":0,"componentType":5126,"count":696,"max":[1,1,1],"min":[-1,-1,-1],"normalized":false,"type":"VEC3"},{"bufferView":28,"byteOffset":0,"componentType":5126,"count":696,"max":[1,1],"min":[0,0],"normalized":false,"type":"VEC2"},{"bufferView":29,"byteOffset":0,"componentType":5123,"count":696,"max":[695],"min":[0],"normalized":false,"type":"SCALAR"}],"asset":{"generator":"Godot Engine v4.3.stable.official@77dcf97d82cbfe4e4615475fa52ca03da645dbd8","version":"2.0"},"bufferViews":[{"buffer":0,"byteLength":432,"byteOffset":0,"byteStride":12,"target":34962},{"buffer":0,"byteLength":576,"byteOffset":432,"byteStride":16,"target":34962},{"buffer":0,"byteLength":432,"byteOffset":1008,"byteStride":12,"target":34962},{"buffer":0,"byteLength":288,"byteOffset":1440,"byteStride":8,"target":34962},{"buffer":0,"byteLength":72,"byteOffset":1728,"target":34963},{"buffer":0,"byteLength":4428,"byteOffset":1800,"byteStride":12,"target":34962},{"buffer":0,"byteLength":5904,"byteOffset":6228,"byteStride":16,"target":34962},{"buffer":0,"byteLength":4428,"byteOffset":12132,"byteStride":12,"target":34962},{"buffer":0,"byteLength":2952,"byteOffset":16560,"byteStride":8,"target":34962},{"buffer":0,"byteLength":738,"byteOffset":19512,"target":34963},{"buffer":0,"byteLength":10800,"byteOffset":20252,"byteStride":12,"target":34962},{"buffer":0,"byteLength":14400,"byteOffset":31052,"byteStride":16,"target":34962},{"buffer":0,"byteLength":10800,"byteOffset":45452,"byteStride":12,"target":34962},{"buffer":0,"byteLength":7200,"byteOffset":56252,"byteStride":8,"target":34962},{"buffer":0,"byteLength":1800,"byteOffset":63452,"target":34963},{"buffer":0,"byteLength":19224,"byteOffset":65252,"byteStride":12,"target":34962},{"buffer":0,"byteLength":25632,"byteOffset":84476,"byteStride":16,"target":34962},{"buffer":0,"byteLength":19224,"byteOffset":110108,"byteStride":12,"target":34962},{"buffer":0,"byteLength":12816,"byteOffset":129332,"byteStride":8,"target":34962},{"buffer":0,"byteLength":3204,"byteOffset":142148,"target":34963},{"buffer":0,"byteLength":14688,"byteOffset":145352,"byteStride":12,"target":34962},{"buffer":0,"byteLength":19584,"byteOffset":160040,"byteStride":16,"target":34962},{"buffer":0,"byteLength":14688,"byteOffset":179624,"byteStride":12,"target":34962},{"buffer":0,"byteLength":9792,"byteOffset":194312,"byteStride":8,"target":34962},{"buffer":0,"byteLength":2448,"byteOffset":204104,"target":34963},{"buffer":0,"byteLength":8352,"byteOffset":206552,"byteStride":12,"target":34962},{"buffer":0,"byteLength":11136,"byteOffset":214904,"byteStride":16,"target":34962},{"buffer":0,"byteLength":8352,"byteOffset":226040,"byteStride":12,"target":34962},{"buffer":0,"byteLength":5568,"byteOffset":234392,"byteStride":8,"target":34962},{"buffer":0,"byteLength":1392,"byteOffset":239960,"target":34963}],"buffers":[{"byteLength":241352,"uri":"test_room_10.bin"}],"extensions":{"KHR_lights_punctual":{"lights":[{"color":[1,1,1],"intensity":1,"range":4.65796947479248,"type":"point"}]}},"extensionsUsed":["GODOT_single_root","KHR_lights_punctual"],"materials":[{"extensions":{},"pbrMetallicRoughness":{"baseColorFactor":[0.99999988079071,0.99999988079071,0.99999988079071,1],"metallicFactor":0,"roughnessFactor":1}},{"extensions":{},"pbrMetallicRoughness":{"baseColorFactor":[0.99999988079071,0.99999988079071,0.99999988079071,1],"metallicFactor":0,"roughnessFactor":1}},{"extensions":{},"pbrMetallicRoughness":{"baseColorFactor":[0.99999988079071,0.99999988079071,0.99999988079071,1],"metallicFactor":0,"roughnessFactor":1}},{"extensions":{},"pbrMetallicRoughness":{"baseColorFactor":[0.99999988079071,0.99999988079071,0.99999988079071,1],"metallicFactor":0,"roughnessFactor":1}},{"extensions":{},"pbrMetallicRoughness":{"baseColorFactor":[0.99999988079071,0.99999988079071,0.99999988079071,1],"metallicFactor":0,"roughnessFactor":1}},{"extensions":{},"pbrMetallicRoughness":{"baseColorFactor":[0.99999988079071,0.99999988079071,0.99999988079071,1],"metallicFactor":0,"roughnessFactor":1}}],"meshes":[{"extras":{"targetNames":[]},"primitives":[{"attributes":{"NORMAL":2,"POSITION":0,"TANGENT":1,"TEXCOORD_0":3},"indices":4,"material":0,"mode":4}]},{"extras":{"targetNames":[]},"primitives":[{"attributes":{"NORMAL":7,"POSITION":5,"TANGENT":6,"TEXCOORD_0":8},"indices":9,"material":1,"mode":4}]},{"extras":{"targetNames":[]},"primitives":[{"attributes":{"NORMAL":12,"POSITION":10,"TANGENT":11,"TEXCOORD_0":13},"indices":14,"material":2,"mode":4}]},{"extras":{"targetNames":[]},"primitives":[{"attributes":{"NORMAL":17,"POSITION":15,"TANGENT":16,"TEXCOORD_0":18},"indices":19,"material":3,"mode":4}]},{"extras":{"targetNames":[]},"primitives":[{"attributes":{"NORMAL":22,"POSITION":20,"TANGENT":21,"TEXCOORD_0":23},"indices":24,"material":4,"mode":4}]},{"extras":{"targetNames":[]},"primitives":[{"attributes":{"NORMAL":27,"POSITION":25,"TANGENT":26,"TEXCOORD_0":28},"indices":29,"material":5,"mode":4}]}],"nodes":[{"children":[1,2,8,15,20,27],"name":"Room1","translation":[0,16.6644992828369,0]},{"mesh":0,"name":"Room2","translation":[0,-2.33194994926453,0]},{"children":[3,4,5,6,7],"mesh":1,"name":"Desk2","translation":[-2.46012997627258,-4.14631986618042,-0.83560198545456]},{"name":"Surface","translation":[-1.83835005760193,0.180399000644684,-1.16144001483917]},{"name":"Leg1","translation":[-1.39803004264832,-0.34190401434898,-0.21719299256802]},{"name":"Leg2","translation":[-2.27540993690491,-0.34190401434898,-0.2260390073061]},{"name":"Leg3","translation":[-2.27540993690491,-0.34190401434898,-2.09518003463745]},{"name":"Leg4","translation":[-1.3987900018692,-0.34190401434898,-2.09518003463745]},{"children":[9,10,11],"mesh":2,"name":"Bed2","scale":[0.870999991893768,0.740000009536743,0.870999991893768],"translation":[0,-4.32997989654541,-2.66700005531311]},{"name":"Frame","translation":[0,-0.37305799126625,0]},{"name":"Mattress","translation":[0,-0.23776400089264,0]},{"children":[12,13,14],"name":"Pillow","scale":[1.24000000953674,0.629999995231628,1],"translation":[-0.39273500442505,-0.11212500184774,-0.24982200562954]},{"name":"CSGSphere3D","translation":[0,0.44404000043869,-1.0628399848938]},{"name":"CSGSphere3D2","translation":[0.304439008235931,0.44404000043869,-1.0628399848938]},{"name":"CSGSphere3D3","translation":[0.612613022327423,0.44404000043869,-1.0628399848938]},{"children":[16,17,18,19],"mesh":3,"name":"Lamp2","scale":[0.810000002384186,0.810000002384186,0.810000002384186],"translation":[3.77850008010864,-4.91084003448486,-3.86414003372192]},{"name":"Base","translation":[0,0.0869169011712074,0]},{"name":"Pole","translation":[0,1.21478998661041,0]},{"name":"Lampshade","scale":[0.349999994039536,0.349999994039536,0.349999994039536],"translation":[-0.00436640018597,1.8874499797821,-0.00944733992219]},{"extensions":{"KHR_lights_punctual":{"light":0}},"name":"OmniLight3D","scale":[1.23457002639771,1.23457002639771,1.23457002639771],"translation":[-0.02177000045776,2.61884999275208,-0.01882410049438]},{"children":[21,22,23,24,25,26],"mesh":4,"name":"Bookshelf2"},{"name":"Exterior","translation":[4.46029996871948,-3.3411500453949,0]},{"name":"Interior","translation":[4.32550001144409,-3.3411500453949,0]},{"name":"Shelf1","translation":[4.45412015914917,-2.34625005722046,0.000151276995893568]},{"name":"Shelf2","translation":[4.45412015914917,-2.95764994621277,0.000151276995893568]},{"name":"Shelf3","translation":[4.45412015914917,-3.57680010795593,0.000151276995893568]},{"name":"Shelf4","translation":[4.45412015914917,-4.22346019744873,0.000151276995893568]},{"children":[28,31],"mesh":5,"name":"Doorway2","scale":[1.48000001907349,1.48000001907349,1.48000001907349],"translation":[0,-3.01976990699768,4.82474994659424]},{"children":[29,30],"name":"DoorFrame","translation":[0,3.67499995231628,-4.86999988555908]},{"name":"DoorframeExterior","translation":[0,-3.79815006256104,4.90366983413696]},{"name":"DoorframeInterior","translation":[0,-3.8665599822998,4.90366983413696]},{"children":[32,33,34,35,36],"name":"Door","translation":[0,3.67499995231628,-4.86999988555908]},{"name":"DoorBody","translation":[0.00256216991692781,-3.849289894104,4.90366983413696]},{"name":"DoorCutout1","translation":[0.285892009735107,-3.27847003936768,4.78096008300781]},{"name":"DoorCutout2","translation":[-0.29311400651932,-3.27847003936768,4.78096008300781]},{"name":"DoorCutout3","translation":[0.285892009735107,-4.24841022491455,4.78096008300781]},{"name":"DoorCutout4","translation":[-0.29311400651932,-4.24841022491455,4.78096008300781]}],"scene":0,"scenes":[{"nodes":[0]}]}