# Blender v3.1.2 OBJ File: 'assests test file.blend'
# www.blender.org
mtllib wood plank.mtl
o Cube.001_Cube.002
v 0.359601 5.965173 -40.904591
v 0.337441 5.586865 -40.793343
v 0.315763 5.208430 -40.717484
v 0.292785 4.820202 -40.636826
v 0.344710 5.818082 -38.217819
v 0.320091 5.408124 -38.132038
v 0.301440 5.039392 -38.241505
v 0.279234 4.653008 -38.248375
v 0.343869 5.689194 -35.690636
v 0.322099 5.320807 -35.711815
v 0.302053 4.968750 -35.781147
v 0.283002 4.622902 -35.880436
v 0.355980 5.891625 -33.335129
v 0.334526 5.514590 -33.333626
v 0.314514 5.172398 -33.286755
v 0.293264 4.806316 -33.259735
v -0.210180 5.913509 -33.260098
v -0.232886 5.515405 -33.268867
v -0.253526 5.126364 -33.341984
v -0.278467 4.718452 -33.281116
v -0.219257 5.724569 -35.710205
v -0.245357 5.337202 -35.596508
v -0.262675 4.997121 -35.750824
v -0.283632 4.642904 -35.790764
v -0.215838 5.869636 -38.320415
v -0.240804 5.463664 -38.226887
v -0.262328 5.076818 -38.243797
v -0.283539 4.692491 -38.280373
v -0.204195 5.992992 -40.895706
v -0.226078 5.618441 -40.797073
v -0.248395 5.239063 -40.704216
v -0.270396 4.855639 -40.654850
v -0.286738 4.560028 -31.513165
v -0.264761 4.450091 -31.440624
v -0.256003 4.595876 -30.835949
v -0.191158 6.217569 -31.361523
v -0.162208 6.222480 -30.701797
v -0.156984 6.320070 -31.360579
v -0.293398 4.437043 -43.296627
v -0.267363 4.392340 -43.974911
v -0.271605 4.324084 -43.437477
v -0.195679 6.133073 -43.206318
v -0.161289 6.237659 -43.311234
v -0.168983 6.102952 -43.874035
v 0.270789 4.414680 -31.250477
v 0.241905 4.403849 -30.697605
v 0.237358 4.323696 -31.343212
v 0.372877 6.186151 -31.483635
v 0.350679 6.292157 -31.359034
v 0.345108 6.193255 -30.743391
v 0.237367 4.320076 -43.519360
v 0.241792 4.394505 -44.097782
v 0.271752 4.426849 -43.447006
v 0.341713 6.139618 -43.978981
v 0.349132 6.261990 -43.327930
v 0.370951 6.157985 -43.291515
v -0.266642 4.429057 -41.253719
v -0.267881 4.419810 -40.021774
v -0.287208 4.567222 -40.632763
v -0.275293 4.310141 -38.367477
v -0.298008 4.416274 -38.346333
v -0.273844 4.292608 -35.910042
v -0.296515 4.398811 -35.877869
v -0.295565 4.422503 -33.278534
v -0.273146 4.321373 -33.278114
v -0.158456 6.313842 -33.278656
v -0.192767 6.210896 -33.272350
v -0.166812 6.155758 -35.101254
v -0.168058 6.144137 -36.284485
v -0.203561 6.002574 -35.684963
v -0.163412 6.273869 -38.381485
v -0.197956 6.169233 -38.367367
v -0.188742 6.260620 -40.964699
v -0.156555 6.343816 -40.351437
v -0.156247 6.331215 -41.610973
v 0.240133 4.371055 -33.286880
v 0.274507 4.477930 -33.280716
v 0.230474 4.250923 -35.822311
v 0.265335 4.351618 -35.834759
v 0.229823 4.270306 -38.301647
v 0.263674 4.371182 -38.284691
v 0.277086 4.536440 -40.650070
v 0.239732 4.392215 -40.054668
v 0.241874 4.408994 -41.291779
v 0.352392 6.323349 -41.663799
v 0.350896 6.319558 -40.385128
v 0.375572 6.238163 -40.989651
v 0.342367 6.235799 -38.334637
v 0.363905 6.126875 -38.302677
v 0.338330 6.110694 -36.263866
v 0.340300 6.125905 -35.088955
v 0.359445 5.966946 -35.661037
v 0.372487 6.183980 -33.321716
v 0.350179 6.289737 -33.314915
v -0.242049 4.842083 -30.795322
v -0.272179 4.814609 -31.467382
v -0.222905 5.169014 -30.726301
v -0.252241 5.150290 -31.389404
v -0.202510 5.523476 -30.730509
v -0.231242 5.522618 -31.359970
v -0.208263 5.921921 -31.362719
v -0.179853 5.915491 -30.715096
v -0.186161 5.809428 -43.727196
v -0.212050 5.852221 -43.052032
v -0.209251 5.413771 -43.872124
v -0.234980 5.459126 -43.232140
v -0.229519 5.053645 -43.661121
v -0.255635 5.096069 -42.979069
v -0.277156 4.718865 -43.041122
v -0.250745 4.681087 -43.717834
v 0.352145 5.848753 -43.316845
v 0.321683 5.815022 -43.994392
v 0.324948 5.427909 -42.796616
v 0.292606 5.376630 -43.490532
v 0.307425 5.073493 -43.359261
v 0.277149 5.041122 -43.988453
v 0.258591 4.687937 -43.914875
v 0.288055 4.714428 -43.274662
v 0.319566 5.747077 -30.930464
v 0.349943 5.784070 -31.663130
v 0.304819 5.494043 -31.274420
v 0.333605 5.501013 -32.091789
v 0.297336 5.360435 -30.674503
v 0.323732 5.329456 -31.219137
v 0.288193 4.717281 -31.248173
v 0.259017 4.700448 -30.695999
vt 0.387037 0.700000
vt 0.425000 0.700000
vt 0.425000 0.739147
vt 0.387827 0.739167
vt 0.575000 0.200000
vt 0.610731 0.200000
vt 0.611288 0.238538
vt 0.575000 0.238279
vt 0.388484 0.509423
vt 0.425000 0.509899
vt 0.425000 0.550000
vt 0.388398 0.550000
vt 0.637479 0.700000
vt 0.862521 0.700000
vt 0.862506 0.737215
vt 0.637493 0.737390
vt 0.387654 0.762478
vt 0.425000 0.762472
vt 0.425000 0.987507
vt 0.389421 0.987502
vt 0.388445 0.200000
vt 0.425000 0.200000
vt 0.425000 0.239093
vt 0.389239 0.240133
vt 0.575000 0.262531
vt 0.612357 0.262514
vt 0.613214 0.487473
vt 0.575000 0.487456
vt 0.388762 0.650000
vt 0.425000 0.650000
vt 0.575000 0.150000
vt 0.611864 0.150000
vt 0.575000 0.100000
vt 0.611241 0.100000
vt 0.637495 0.510860
vt 0.862504 0.510547
vt 0.862503 0.539453
vt 0.637497 0.539140
vt 0.389926 0.100000
vt 0.425000 0.100000
vt 0.425000 0.150000
vt 0.388668 0.150000
vt 0.387991 0.050000
vt 0.425000 0.050000
vt 0.575000 0.050000
vt 0.612019 0.050000
vt 0.575000 0.600000
vt 0.612151 0.600000
vt 0.611285 0.650000
vt 0.575000 0.650000
vt 0.611841 0.700000
vt 0.575000 0.700000
vt 0.475000 0.762473
vt 0.475000 0.987499
vt 0.556539 0.758270
vt 0.612503 0.761763
vt 0.612494 0.987424
vt 0.574028 0.987279
vt 0.637501 0.662041
vt 0.862498 0.661949
vt 0.637532 0.600000
vt 0.862471 0.600000
vt 0.862478 0.638721
vt 0.637524 0.638589
vt 0.637518 0.561854
vt 0.862485 0.562276
vt 0.137506 0.563359
vt 0.362493 0.562747
vt 0.362462 0.600000
vt 0.137538 0.600000
vt 0.475000 0.150000
vt 0.475000 0.200000
vt 0.525000 0.150000
vt 0.525000 0.200000
vt 0.362446 0.650000
vt 0.137554 0.650000
vt 0.475000 0.100000
vt 0.525000 0.100000
vt 0.362535 0.700000
vt 0.137462 0.700000
vt 0.475000 0.050000
vt 0.525000 0.050000
vt 0.362534 0.737592
vt 0.137455 0.737833
vt 0.525000 0.751591
vt 0.525000 0.986935
vt 0.525000 0.239320
vt 0.388392 0.600000
vt 0.425000 0.600000
vt 0.475000 0.650000
vt 0.475000 0.700000
vt 0.525000 0.650000
vt 0.525000 0.700000
vt 0.475000 0.600000
vt 0.525000 0.600000
vt 0.575000 0.550000
vt 0.610969 0.550000
vt 0.475000 0.550000
vt 0.525000 0.550000
vt 0.575000 0.511152
vt 0.611924 0.511473
vt 0.561420 0.731819
vt 0.525000 0.723570
vt 0.475000 0.509842
vt 0.525000 0.512567
vt 0.575000 0.012898
vt 0.611979 0.012834
vt 0.425000 0.013437
vt 0.475000 0.012634
vt 0.525000 0.012841
vt 0.611903 0.735072
vt 0.475000 0.739532
vt 0.137494 0.509131
vt 0.362506 0.509102
vt 0.362512 0.540898
vt 0.137489 0.540869
vt 0.475000 0.238705
vt 0.387759 0.262500
vt 0.425000 0.262500
vt 0.425000 0.487500
vt 0.387654 0.487501
vt 0.475000 0.262532
vt 0.475000 0.487466
vt 0.525000 0.262607
vt 0.525000 0.487392
vt 0.124636 0.738408
vt 0.125000 0.737644
vt 0.136338 0.750000
vt 0.612487 0.000000
vt 0.625000 0.012624
vt 0.125198 0.513825
vt 0.137698 0.500000
vt 0.137334 0.500000
vt 0.615964 0.249766
vt 0.625000 0.262556
vt 0.612791 0.250000
vt 0.374684 0.741110
vt 0.361396 0.750000
vt 0.362168 0.750000
vt 0.625000 0.737348
vt 0.612520 0.749197
vt 0.362692 0.500000
vt 0.375000 0.512569
vt 0.625000 0.487523
vt 0.615348 0.500000
vt 0.137274 0.550000
vt 0.125060 0.550000
vt 0.635732 0.088691
vt 0.625000 0.110912
vt 0.621556 0.200000
vt 0.625000 0.210573
vt 0.125000 0.742325
vt 0.125000 0.705757
vt 0.611662 1.000000
vt 0.575000 1.000000
vt 0.625000 0.239429
vt 0.625000 0.762557
vt 0.625000 0.987669
vt 0.125000 0.550000
vt 0.125000 0.514097
vt 0.125000 0.594888
vt 0.125000 0.650000
vt 0.125000 0.600000
vt 0.125000 0.700000
vt 0.125000 0.651469
vt 0.625000 0.049865
vt 0.625000 0.050113
vt 0.625000 0.088149
vt 0.625000 0.149610
vt 0.625000 0.150340
vt 0.625000 0.188129
vt 0.388229 0.000000
vt 0.424050 0.000000
vt 0.389253 0.013663
vt 0.425000 0.000000
vt 0.475000 0.000000
vt 0.476675 0.000000
vt 0.524994 0.000000
vt 0.574040 0.000000
vn 0.9984 -0.0572 0.0000
vn -0.9983 0.0579 -0.0002
vn 0.9984 -0.0560 0.0004
vn 0.0510 0.9987 -0.0023
vn -0.2502 -0.0609 0.9663
vn -0.9983 0.0581 -0.0005
vn -0.3313 -0.1771 -0.9268
vn 0.9982 -0.0606 -0.0001
vn -0.9983 0.0583 -0.0016
vn -0.9983 0.0581 0.0017
vn -0.0193 0.9988 -0.0459
vn -0.9986 0.0522 0.0010
vn -0.9985 0.0554 0.0001
vn -0.9983 0.0575 -0.0006
vn -0.9985 0.0554 -0.0014
vn 0.9982 -0.0594 -0.0023
vn 0.9984 -0.0562 -0.0003
vn -0.1420 -0.0822 0.9865
vn 0.1899 -0.2626 0.9460
vn 0.0507 0.9947 -0.0893
vn 0.0663 0.9959 0.0610
vn 0.0609 0.9974 0.0384
vn -0.0641 -0.9956 -0.0680
vn -0.9984 0.0562 -0.0018
vn -0.9984 0.0569 -0.0021
vn -0.9982 0.0594 -0.0019
vn -0.0794 -0.9968 -0.0074
vn -0.9984 0.0569 0.0014
vn -0.9986 0.0531 0.0012
vn -0.9979 0.0647 0.0018
vn 0.0056 -0.9996 0.0288
vn -0.9982 0.0601 0.0004
vn -0.9987 0.0516 0.0012
vn -0.9981 0.0620 -0.0003
vn -0.0772 -0.9968 0.0216
vn 0.1785 0.7613 0.6233
vn 0.4806 -0.4479 0.7539
vn -0.9983 0.0583 -0.0002
vn 0.9982 -0.0600 -0.0017
vn 0.9984 -0.0565 -0.0002
vn 0.9983 -0.0576 -0.0004
vn 0.9983 -0.0579 -0.0003
vn 0.9985 -0.0553 0.0018
vn 0.9984 -0.0560 -0.0021
vn 0.9986 -0.0531 -0.0023
vn 0.9982 -0.0597 -0.0028
vn 0.9982 -0.0597 0.0021
vn 0.9983 -0.0581 0.0017
vn 0.9985 -0.0540 0.0025
vn 0.9983 -0.0586 0.0024
vn 0.9982 -0.0596 -0.0001
vn 0.9984 -0.0566 0.0001
vn 0.9986 -0.0527 -0.0011
vn -0.9983 0.0581 0.0007
vn -0.9982 0.0602 0.0001
vn -0.9985 0.0546 0.0003
vn -0.9984 0.0572 0.0007
vn 0.9984 -0.0567 -0.0001
vn 0.9983 -0.0580 -0.0000
vn -0.0185 -0.9989 0.0439
vn 0.9981 -0.0621 -0.0006
vn -0.9984 0.0571 -0.0004
vn -0.9983 0.0577 -0.0003
vn -0.2460 0.5934 -0.7664
vn -0.4586 0.0045 -0.8886
vn 0.0683 0.3774 -0.9235
vn 0.0910 -0.3985 -0.9127
vn -0.9854 -0.1618 0.0533
vn -0.9480 0.3157 0.0393
vn -0.9874 -0.1561 -0.0276
vn -0.9627 0.2659 -0.0505
vn 0.9237 -0.3810 0.0408
vn 0.9857 0.1648 0.0354
vn 0.9571 -0.2881 -0.0297
vn 0.9808 0.1894 -0.0468
vn -0.9904 -0.1383 -0.0020
vn -0.9713 0.2380 -0.0013
vn -0.9221 0.3869 -0.0041
vn 0.9662 -0.2578 -0.0018
vn 0.9609 0.2769 0.0019
vn 0.9913 0.1315 -0.0034
vn -0.9797 -0.1994 0.0194
vn -0.9974 0.0565 0.0438
vn -0.9528 0.3033 -0.0141
vn -0.9943 0.0971 -0.0444
vn -0.0273 -0.9915 -0.1270
vn -0.0827 0.9752 -0.2055
vn 0.9986 -0.0296 -0.0446
vn 0.9493 -0.3143 0.0106
vn 0.9786 0.2060 -0.0005
vn 0.9970 -0.0578 0.0509
vn -0.3353 -0.9265 0.1710
vn 0.0615 0.9864 0.1526
vn -0.9794 -0.2017 0.0120
vn -0.9788 -0.2042 -0.0180
vn -0.9780 -0.2088 -0.0009
vn -0.9771 -0.2129 0.0024
vn -0.9487 0.3162 -0.0003
vn -0.9488 0.3150 -0.0230
vn -0.9494 0.3135 0.0174
vn -0.9498 0.3128 0.0077
vn 0.9471 -0.3209 -0.0074
vn 0.9487 -0.3161 0.0118
vn 0.9465 -0.3226 -0.0030
vn 0.9490 -0.3148 -0.0166
vn 0.9799 0.1991 -0.0091
vn 0.9796 0.2005 0.0124
vn 0.9796 0.2002 0.0139
vn 0.9780 0.2070 -0.0246
vn 0.0313 0.9995 -0.0034
vn 0.0627 0.9980 -0.0114
vn -0.0476 -0.9988 -0.0106
vn -0.9979 0.0494 0.0427
vn -0.9975 0.0553 0.0440
vn -0.9974 0.0568 0.0449
vn -0.9985 0.0368 -0.0411
vn -0.9961 0.0763 -0.0442
vn -0.9987 0.0301 -0.0412
vn -0.9971 0.0635 -0.0423
vn 0.9974 -0.0585 -0.0414
vn 0.9931 -0.1110 -0.0386
vn 0.9984 0.0276 -0.0490
vn 0.9971 -0.0629 -0.0440
vn 0.9966 -0.0733 0.0379
vn 0.9936 -0.1079 0.0349
vn 0.9912 0.1266 0.0379
vn 0.9969 -0.0599 0.0513
vn -0.9984 0.0574 0.0005
usemtl None
s off
f 77/1/1 16/2/1 125/3/1 45/4/1
f 29/5/2 73/6/2 42/7/2 104/8/2
f 53/9/3 118/10/3 4/11/3 82/12/3
f 94/13/4 66/14/4 38/15/4 49/16/4
f 46/17/5 126/18/5 95/19/5 35/20/5
f 59/21/6 32/22/6 109/23/6 39/24/6
f 103/25/7 44/26/7 54/27/7 112/28/7
f 79/29/8 12/30/8 16/2/8 77/1/8
f 25/31/9 72/32/9 73/6/9 29/5/9
f 21/33/10 70/34/10 72/32/10 25/31/10
f 55/35/11 43/36/11 75/37/11 85/38/11
f 63/39/12 24/40/12 28/41/12 61/42/12
f 64/43/13 20/44/13 24/40/13 63/39/13
f 17/45/14 67/46/14 70/34/14 21/33/14
f 61/42/15 28/41/15 32/22/15 59/21/15
f 5/47/16 89/48/16 92/49/16 9/50/16
f 9/50/17 92/49/17 93/51/17 13/52/17
f 126/18/18 123/53/18 97/54/18 95/19/18
f 119/55/19 50/56/19 37/57/19 102/58/19
f 91/59/20 68/60/20 66/14/20 94/13/20
f 88/61/21 71/62/21 69/63/21 90/64/21
f 86/65/22 74/66/22 71/62/22 88/61/22
f 58/67/23 83/68/23 80/69/23 60/70/23
f 28/41/24 27/71/24 31/72/24 32/22/24
f 27/71/25 26/73/25 30/74/25 31/72/25
f 26/73/26 25/31/26 29/5/26 30/74/26
f 60/70/27 80/69/27 78/75/27 62/76/27
f 24/40/28 23/77/28 27/71/28 28/41/28
f 23/77/29 22/78/29 26/73/29 27/71/29
f 22/78/30 21/33/30 25/31/30 26/73/30
f 62/76/31 78/75/31 76/79/31 65/80/31
f 20/44/32 19/81/32 23/77/32 24/40/32
f 19/81/33 18/82/33 22/78/33 23/77/33
f 18/82/34 17/45/34 21/33/34 22/78/34
f 65/80/35 76/79/35 47/83/35 34/84/35
f 123/53/36 121/85/36 99/86/36 97/54/36
f 121/85/37 119/55/37 102/58/37 99/86/37
f 30/74/38 29/5/38 104/8/38 106/87/38
f 81/88/39 8/89/39 12/30/39 79/29/39
f 12/30/40 11/90/40 15/91/40 16/2/40
f 11/90/41 10/92/41 14/93/41 15/91/41
f 10/92/42 9/50/42 13/52/42 14/93/42
f 82/12/43 4/11/43 8/89/43 81/88/43
f 8/89/44 7/94/44 11/90/44 12/30/44
f 7/94/45 6/95/45 10/92/45 11/90/45
f 6/95/46 5/47/46 9/50/46 10/92/46
f 1/96/47 87/97/47 89/48/47 5/47/47
f 4/11/48 3/98/48 7/94/48 8/89/48
f 3/98/49 2/99/49 6/95/49 7/94/49
f 2/99/50 1/96/50 5/47/50 6/95/50
f 111/100/51 56/101/51 87/97/51 1/96/51
f 14/93/1 13/52/1 120/102/1 122/103/1
f 118/10/52 115/104/52 3/98/52 4/11/52
f 115/104/53 113/105/53 2/99/53 3/98/53
f 101/106/54 36/107/54 67/46/54 17/45/54
f 96/108/55 98/109/55 19/81/55 20/44/55
f 98/109/56 100/110/56 18/82/56 19/81/56
f 100/110/57 101/106/57 17/45/57 18/82/57
f 13/52/58 93/51/58 48/111/58 120/102/58
f 16/2/59 15/91/59 124/112/59 125/3/59
f 15/91/59 14/93/59 122/103/59 124/112/59
f 41/113/60 51/114/60 84/115/60 57/116/60
f 113/105/61 111/100/61 1/96/61 2/99/61
f 32/22/62 31/72/62 108/117/62 109/23/62
f 31/72/63 30/74/63 106/87/63 108/117/63
f 40/118/64 110/119/64 117/120/64 52/121/64
f 110/119/65 107/122/65 116/123/65 117/120/65
f 107/122/66 105/124/66 114/125/66 116/123/66
f 105/124/67 103/25/67 112/28/67 114/125/67
f 33/126/68 34/127/68 35/128/68
f 36/107/69 37/129/69 38/130/69
f 39/131/70 40/132/70 41/133/70
f 42/134/71 43/135/71 44/136/71
f 45/137/72 46/138/72 47/139/72
f 48/111/73 49/140/73 50/141/73
f 51/114/74 52/142/74 53/143/74
f 54/27/75 55/144/75 56/145/75
f 57/116/76 58/146/76 59/147/76
f 68/148/77 69/149/77 70/34/77
f 73/6/78 74/150/78 75/151/78
f 82/12/79 83/68/79 84/115/79
f 85/38/80 86/65/80 87/97/80
f 90/64/81 91/59/81 92/49/81
f 65/80/82 34/84/82 33/152/82 64/153/82
f 102/58/83 37/57/83 36/154/83 101/155/83
f 75/151/84 43/156/84 42/7/84 73/6/84
f 110/119/85 40/118/85 39/24/85 109/23/85
f 51/114/86 41/113/86 40/132/86 52/142/86
f 43/135/87 55/144/87 54/27/87 44/26/87
f 118/10/88 53/9/88 52/121/88 117/120/88
f 84/115/89 51/114/89 53/9/89 82/12/89
f 94/13/90 49/16/90 48/111/90 93/51/90
f 126/18/91 46/17/91 45/4/91 125/3/91
f 34/84/92 47/83/92 46/138/92 35/128/92
f 49/157/93 38/158/93 37/57/93 50/56/93
f 41/113/94 57/116/94 59/159/94 39/160/94
f 58/67/95 60/70/95 61/161/95 59/159/95
f 60/70/96 62/76/96 63/162/96 61/163/96
f 62/76/97 65/80/97 64/164/97 63/165/97
f 38/130/98 66/166/98 67/46/98 36/107/98
f 66/167/99 68/168/99 70/34/99 67/46/99
f 69/149/100 71/169/100 72/32/100 70/34/100
f 71/170/101 74/171/101 73/6/101 72/32/101
f 47/83/102 76/79/102 77/1/102 45/4/102
f 76/79/103 78/75/103 79/29/103 77/1/103
f 78/75/104 80/69/104 81/88/104 79/29/104
f 80/69/105 83/68/105 82/12/105 81/88/105
f 55/35/106 85/38/106 87/97/106 56/101/106
f 86/65/107 88/61/107 89/48/107 87/97/107
f 88/61/108 90/64/108 92/49/108 89/48/108
f 91/59/109 94/13/109 93/51/109 92/49/109
f 74/66/110 86/65/110 85/38/110 75/37/110
f 68/60/111 91/59/111 90/64/111 69/63/111
f 83/68/112 58/67/112 57/116/112 84/115/112
f 35/172/113 95/173/113 96/108/113 33/174/113
f 95/175/113 97/176/113 98/109/113 96/108/113
f 97/177/114 99/178/114 100/110/114 98/109/114
f 99/178/115 102/179/115 101/106/115 100/110/115
f 44/26/116 103/25/116 104/8/116 42/7/116
f 103/25/117 105/124/117 106/87/117 104/8/117
f 105/124/118 107/122/118 108/117/118 106/87/118
f 107/122/119 110/119/119 109/23/119 108/117/119
f 56/101/120 111/100/120 112/28/120 54/27/120
f 111/100/121 113/105/121 114/125/121 112/28/121
f 113/105/122 115/104/122 116/123/122 114/125/122
f 115/104/123 118/10/123 117/120/123 116/123/123
f 50/56/124 119/55/124 120/102/124 48/111/124
f 119/55/125 121/85/125 122/103/125 120/102/125
f 121/85/126 123/53/126 124/112/126 122/103/126
f 123/53/127 126/18/127 125/3/127 124/112/127
f 33/174/128 96/108/128 20/44/128 64/43/128
