{
	"asset":{
		"generator":"Khronos glTF Blender I/O v4.2.60",
		"version":"2.0"
	},
	"scene":0,
	"scenes":[
		{
			"name":"Scene",
			"nodes":[
				0
			]
		}
	],
	"nodes":[
		{
			"mesh":0,
			"name":"spear_long_head",
			"scale":[
				0.015495888888835907,
				0.6595813632011414,
				0.015495888888835907
			]
		}
	],
	"materials":[
		{
			"doubleSided":true,
			"emissiveFactor":[
				0.4300000071525574,
				0.4300000071525574,
				0.4300000071525574
			],
			"name":"Spear Shaft",
			"pbrMetallicRoughness":{
				"metallicFactor":0,
				"roughnessFactor":0.5
			}
		},
		{
			"name":"Spearhead",
			"pbrMetallicRoughness":{
				"metallicFactor":0.9732824563980103,
				"roughnessFactor":0.3320610523223877
			}
		}
	],
	"meshes":[
		{
			"name":"Cylinder.006",
			"primitives":[
				{
					"attributes":{
						"POSITION":0,
						"NORMAL":1,
						"TEXCOORD_0":2
					},
					"indices":3,
					"material":0
				},
				{
					"attributes":{
						"POSITION":4,
						"NORMAL":5,
						"TEXCOORD_0":6
					},
					"indices":7,
					"material":1
				}
			]
		}
	],
	"accessors":[
		{
			"bufferView":0,
			"componentType":5126,
			"count":130,
			"max":[
				1,
				1,
				1
			],
			"min":[
				-1,
				-1,
				-1
			],
			"type":"VEC3"
		},
		{
			"bufferView":1,
			"componentType":5126,
			"count":130,
			"type":"VEC3"
		},
		{
			"bufferView":2,
			"componentType":5126,
			"count":130,
			"type":"VEC2"
		},
		{
			"bufferView":3,
			"componentType":5123,
			"count":372,
			"type":"SCALAR"
		},
		{
			"bufferView":4,
			"componentType":5126,
			"count":3232,
			"max":[
				1.421646237373352,
				1.3528016805648804,
				1.359487771987915
			],
			"min":[
				-1.291480302810669,
				0.9913842082023621,
				-1.325308084487915
			],
			"type":"VEC3"
		},
		{
			"bufferView":5,
			"componentType":5126,
			"count":3232,
			"type":"VEC3"
		},
		{
			"bufferView":6,
			"componentType":5126,
			"count":3232,
			"type":"VEC2"
		},
		{
			"bufferView":7,
			"componentType":5123,
			"count":4944,
			"type":"SCALAR"
		}
	],
	"bufferViews":[
		{
			"buffer":0,
			"byteLength":1560,
			"byteOffset":0,
			"target":34962
		},
		{
			"buffer":0,
			"byteLength":1560,
			"byteOffset":1560,
			"target":34962
		},
		{
			"buffer":0,
			"byteLength":1040,
			"byteOffset":3120,
			"target":34962
		},
		{
			"buffer":0,
			"byteLength":744,
			"byteOffset":4160,
			"target":34963
		},
		{
			"buffer":0,
			"byteLength":38784,
			"byteOffset":4904,
			"target":34962
		},
		{
			"buffer":0,
			"byteLength":38784,
			"byteOffset":43688,
			"target":34962
		},
		{
			"buffer":0,
			"byteLength":25856,
			"byteOffset":82472,
			"target":34962
		},
		{
			"buffer":0,
			"byteLength":9888,
			"byteOffset":108328,
			"target":34963
		}
	],
	"buffers":[
		{
			"byteLength":118216,
			"uri":"spear_long_head.bin"
		}
	]
}
