# Blender v3.1.2 OBJ File: 'test animations.blend'
# www.blender.org
mtllib sword blade.mtl
o Cylinder.003
v -27.195580 0.208159 2.084255
v -25.259237 0.521441 2.912648
v -25.328030 0.574644 3.053329
v -27.264372 0.261362 2.224936
v -26.261805 13.992205 -2.574766
v -26.062811 0.237504 2.161851
v -26.460798 0.545299 2.975733
v -27.195580 11.063663 -2.021084
v -25.259237 11.376945 -1.192691
v -25.328030 11.430147 -1.052010
v -27.264372 11.116865 -1.880403
v -26.460798 11.400803 -1.129606
v -26.062811 11.093008 -1.943488
vt 0.625000 0.375000
vt 0.625000 0.350000
vt 0.625000 0.375000
vt 0.725000 0.750000
vt 0.725000 0.500000
vt 0.725000 0.750000
vt 0.775000 0.500000
vt 0.775000 0.750000
vt 0.775000 0.500000
vt 0.625000 0.875000
vt 0.625000 0.850000
vt 0.625000 0.875000
vt 0.625000 0.900000
vt 0.625000 0.900000
vt 0.625000 0.400000
vt 0.625000 0.400000
vt 0.625000 0.400000
vt 0.625000 0.375000
vt 0.625000 0.900000
vt 0.625000 0.875000
vt 0.625000 0.850000
vt 0.775000 0.500000
vt 0.775000 0.750000
vt 0.725000 0.750000
vt 0.725000 0.500000
vt 0.625000 0.350000
vn 0.0722 -0.2075 -0.9756
vn 0.8549 0.4573 0.2451
vn -0.8549 0.1806 -0.4864
vn -0.0722 0.4900 0.8687
vn -0.6986 0.3887 0.6007
vn 0.6986 -0.1061 -0.7076
vn 0.7067 -0.2503 -0.6618
vn -0.7067 0.2503 0.6618
vn -0.0730 0.3528 0.9328
vn -0.9094 -0.1471 -0.3890
vn 0.9094 0.1471 0.3890
vn 0.0730 -0.3528 -0.9328
vn -0.0000 -0.9353 0.3537
usemtl None
s off
f 13/1/1 8/2/1 5/3/1
f 10/4/2 9/5/2 5/6/2
f 8/7/3 11/8/3 5/9/3
f 12/10/4 10/11/4 5/12/4
f 11/13/5 12/10/5 5/14/5
f 9/15/6 13/1/6 5/16/6
f 2/17/7 6/18/7 13/1/7 9/15/7
f 4/19/8 7/20/8 12/10/8 11/13/8
f 7/20/9 3/21/9 10/11/9 12/10/9
f 1/22/10 4/23/10 11/8/10 8/7/10
f 3/24/11 2/25/11 9/5/11 10/4/11
f 6/18/12 1/26/12 8/2/12 13/1/12
f 6/18/13 2/25/13 3/21/13 7/20/13 4/23/13 1/26/13
